<svg width="537" height="123" viewBox="0 0 537 123" fill="none" xmlns="http://www.w3.org/2000/svg">
<path d="M167.485 115.998V117.104H158.855V115.998H167.485ZM159.245 101.763V117.104H157.949V101.763H159.245ZM166.41 108.644V109.75H158.855V108.644H166.41ZM167.432 101.763V102.88H158.855V101.763H167.432ZM177.415 114.196C177.415 113.887 177.338 113.582 177.183 113.28C177.028 112.978 176.73 112.7 176.287 112.447C175.852 112.194 175.209 111.98 174.359 111.805C173.727 111.664 173.162 111.506 172.663 111.33C172.171 111.155 171.757 110.944 171.42 110.698C171.082 110.452 170.826 110.157 170.65 109.813C170.475 109.469 170.387 109.062 170.387 108.591C170.387 108.169 170.478 107.773 170.661 107.4C170.851 107.021 171.117 106.691 171.462 106.41C171.813 106.122 172.234 105.897 172.726 105.736C173.225 105.574 173.783 105.493 174.401 105.493C175.279 105.493 176.031 105.644 176.656 105.946C177.288 106.241 177.77 106.645 178.1 107.158C178.437 107.671 178.605 108.25 178.605 108.896H177.352C177.352 108.503 177.236 108.131 177.004 107.78C176.779 107.428 176.445 107.14 176.003 106.916C175.567 106.691 175.034 106.578 174.401 106.578C173.748 106.578 173.218 106.677 172.81 106.873C172.403 107.07 172.104 107.32 171.915 107.622C171.732 107.924 171.641 108.236 171.641 108.559C171.641 108.812 171.679 109.044 171.757 109.255C171.841 109.458 171.989 109.648 172.199 109.824C172.417 109.999 172.726 110.164 173.126 110.319C173.527 110.473 174.047 110.624 174.686 110.772C175.606 110.976 176.358 111.225 176.941 111.52C177.531 111.808 177.966 112.166 178.247 112.595C178.528 113.016 178.669 113.529 178.669 114.133C178.669 114.604 178.57 115.036 178.374 115.429C178.177 115.815 177.892 116.149 177.52 116.43C177.155 116.711 176.712 116.929 176.193 117.083C175.68 117.238 175.104 117.315 174.465 117.315C173.502 117.315 172.687 117.157 172.02 116.841C171.36 116.518 170.858 116.096 170.513 115.577C170.176 115.05 170.008 114.491 170.008 113.901H171.261C171.304 114.491 171.49 114.958 171.82 115.303C172.15 115.64 172.554 115.879 173.032 116.019C173.516 116.16 173.994 116.23 174.465 116.23C175.111 116.23 175.652 116.135 176.087 115.945C176.523 115.756 176.853 115.506 177.078 115.197C177.302 114.888 177.415 114.555 177.415 114.196ZM183.415 107.896V121.488H182.15V105.704H183.33L183.415 107.896ZM191.338 111.299V111.52C191.338 112.37 191.24 113.15 191.043 113.859C190.846 114.569 190.562 115.183 190.19 115.703C189.824 116.216 189.371 116.613 188.83 116.894C188.29 117.175 187.675 117.315 186.987 117.315C186.305 117.315 185.698 117.21 185.164 116.999C184.63 116.788 184.17 116.49 183.783 116.103C183.404 115.71 183.099 115.254 182.867 114.734C182.642 114.207 182.484 113.631 182.393 113.006V110.087C182.498 109.399 182.67 108.774 182.909 108.212C183.148 107.65 183.453 107.165 183.826 106.758C184.205 106.35 184.655 106.038 185.174 105.82C185.694 105.602 186.288 105.493 186.955 105.493C187.65 105.493 188.269 105.63 188.809 105.904C189.357 106.171 189.817 106.561 190.19 107.074C190.569 107.579 190.853 108.191 191.043 108.907C191.24 109.616 191.338 110.414 191.338 111.299ZM190.074 111.52V111.299C190.074 110.632 190.004 110.013 189.863 109.444C189.73 108.875 189.522 108.38 189.241 107.959C188.967 107.53 188.616 107.197 188.188 106.958C187.766 106.719 187.264 106.6 186.681 106.6C186.077 106.6 185.561 106.701 185.132 106.905C184.711 107.102 184.359 107.365 184.079 107.695C183.798 108.018 183.576 108.373 183.415 108.76C183.253 109.146 183.134 109.525 183.056 109.897V113.259C183.19 113.792 183.404 114.288 183.699 114.744C183.994 115.194 184.388 115.556 184.879 115.83C185.378 116.096 185.986 116.23 186.702 116.23C187.278 116.23 187.777 116.11 188.198 115.872C188.62 115.633 188.967 115.299 189.241 114.871C189.522 114.442 189.73 113.943 189.863 113.375C190.004 112.806 190.074 112.187 190.074 111.52ZM199.193 117.315C198.448 117.315 197.763 117.178 197.138 116.904C196.52 116.63 195.979 116.244 195.515 115.745C195.059 115.246 194.704 114.656 194.451 113.975C194.205 113.287 194.082 112.535 194.082 111.72V111.267C194.082 110.389 194.212 109.595 194.472 108.886C194.732 108.177 195.09 107.569 195.547 107.063C196.003 106.557 196.523 106.171 197.106 105.904C197.696 105.63 198.314 105.493 198.961 105.493C199.684 105.493 200.327 105.623 200.889 105.883C201.451 106.136 201.921 106.498 202.301 106.968C202.687 107.432 202.979 107.983 203.175 108.623C203.372 109.255 203.47 109.954 203.47 110.719V111.488H194.841V110.414H202.216V110.266C202.202 109.627 202.072 109.03 201.827 108.475C201.588 107.913 201.23 107.457 200.752 107.105C200.274 106.754 199.677 106.578 198.961 106.578C198.427 106.578 197.935 106.691 197.486 106.916C197.043 107.14 196.66 107.464 196.337 107.885C196.021 108.299 195.775 108.795 195.6 109.371C195.431 109.94 195.347 110.572 195.347 111.267V111.72C195.347 112.352 195.438 112.943 195.621 113.49C195.81 114.031 196.077 114.509 196.421 114.923C196.773 115.338 197.187 115.661 197.665 115.893C198.142 116.125 198.669 116.24 199.245 116.24C199.92 116.24 200.517 116.118 201.036 115.872C201.556 115.619 202.023 115.222 202.438 114.681L203.228 115.292C202.982 115.657 202.673 115.995 202.301 116.304C201.936 116.613 201.496 116.859 200.984 117.041C200.471 117.224 199.874 117.315 199.193 117.315ZM210.808 116.23C211.342 116.23 211.841 116.132 212.305 115.935C212.775 115.731 213.162 115.433 213.464 115.039C213.773 114.639 213.948 114.151 213.99 113.575H215.192C215.156 114.298 214.935 114.944 214.528 115.513C214.127 116.075 213.601 116.518 212.947 116.841C212.301 117.157 211.588 117.315 210.808 117.315C210.015 117.315 209.312 117.171 208.701 116.883C208.097 116.595 207.591 116.195 207.184 115.682C206.776 115.162 206.467 114.558 206.257 113.87C206.053 113.174 205.951 112.426 205.951 111.625V111.183C205.951 110.382 206.053 109.638 206.257 108.949C206.467 108.254 206.776 107.65 207.184 107.137C207.591 106.617 208.097 106.213 208.701 105.925C209.305 105.637 210.004 105.493 210.798 105.493C211.613 105.493 212.343 105.658 212.989 105.988C213.643 106.319 214.162 106.786 214.549 107.39C214.942 107.994 215.156 108.71 215.192 109.539H213.99C213.955 108.928 213.794 108.401 213.506 107.959C213.218 107.516 212.838 107.176 212.368 106.937C211.897 106.698 211.374 106.578 210.798 106.578C210.152 106.578 209.6 106.705 209.144 106.958C208.687 107.204 208.315 107.544 208.027 107.98C207.746 108.408 207.539 108.9 207.405 109.455C207.272 110.003 207.205 110.579 207.205 111.183V111.625C207.205 112.237 207.268 112.82 207.395 113.375C207.528 113.922 207.735 114.411 208.016 114.839C208.304 115.268 208.676 115.608 209.133 115.861C209.597 116.107 210.155 116.23 210.808 116.23ZM219.78 105.704V117.104H218.526V105.704H219.78ZM218.304 102.406C218.304 102.167 218.378 101.967 218.526 101.805C218.68 101.637 218.891 101.553 219.158 101.553C219.425 101.553 219.636 101.637 219.79 101.805C219.952 101.967 220.032 102.167 220.032 102.406C220.032 102.638 219.952 102.838 219.79 103.007C219.636 103.168 219.425 103.249 219.158 103.249C218.891 103.249 218.68 103.168 218.526 103.007C218.378 102.838 218.304 102.638 218.304 102.406ZM230.805 115.06V109.181C230.805 108.64 230.693 108.173 230.468 107.78C230.243 107.386 229.913 107.084 229.478 106.873C229.042 106.663 228.505 106.557 227.866 106.557C227.276 106.557 226.749 106.663 226.285 106.873C225.829 107.077 225.467 107.355 225.2 107.706C224.94 108.05 224.81 108.433 224.81 108.854L223.546 108.844C223.546 108.415 223.651 108.001 223.862 107.601C224.073 107.2 224.371 106.842 224.757 106.526C225.144 106.21 225.604 105.96 226.138 105.778C226.679 105.588 227.272 105.493 227.918 105.493C228.733 105.493 229.45 105.63 230.068 105.904C230.693 106.178 231.181 106.589 231.532 107.137C231.884 107.685 232.059 108.373 232.059 109.202V114.713C232.059 115.106 232.087 115.513 232.144 115.935C232.207 116.356 232.295 116.704 232.407 116.978V117.104H231.069C230.985 116.852 230.918 116.535 230.869 116.156C230.826 115.77 230.805 115.405 230.805 115.06ZM231.1 110.466L231.121 111.436H228.645C227.999 111.436 227.42 111.495 226.907 111.615C226.401 111.727 225.973 111.896 225.621 112.121C225.27 112.338 225 112.602 224.81 112.911C224.627 113.22 224.536 113.571 224.536 113.965C224.536 114.372 224.638 114.744 224.842 115.081C225.052 115.419 225.347 115.689 225.727 115.893C226.113 116.089 226.57 116.188 227.097 116.188C227.799 116.188 228.417 116.058 228.951 115.798C229.492 115.538 229.938 115.197 230.289 114.776C230.64 114.354 230.876 113.894 230.995 113.396L231.543 114.123C231.452 114.474 231.283 114.836 231.037 115.208C230.798 115.573 230.486 115.917 230.099 116.24C229.713 116.557 229.257 116.816 228.73 117.02C228.21 117.217 227.62 117.315 226.96 117.315C226.215 117.315 225.565 117.175 225.01 116.894C224.462 116.613 224.034 116.23 223.725 115.745C223.423 115.254 223.272 114.699 223.272 114.08C223.272 113.519 223.391 113.016 223.63 112.574C223.869 112.124 224.213 111.745 224.663 111.436C225.119 111.12 225.667 110.881 226.306 110.719C226.953 110.551 227.676 110.466 228.477 110.466H231.1ZM237.49 100.92V117.104H236.236V100.92H237.49ZM242.984 105.704V117.104H241.73V105.704H242.984ZM241.509 102.406C241.509 102.167 241.583 101.967 241.73 101.805C241.885 101.637 242.096 101.553 242.363 101.553C242.63 101.553 242.84 101.637 242.995 101.805C243.156 101.967 243.237 102.167 243.237 102.406C243.237 102.638 243.156 102.838 242.995 103.007C242.84 103.168 242.63 103.249 242.363 103.249C242.096 103.249 241.885 103.168 241.73 103.007C241.583 102.838 241.509 102.638 241.509 102.406ZM253.905 114.196C253.905 113.887 253.828 113.582 253.673 113.28C253.518 112.978 253.22 112.7 252.777 112.447C252.342 112.194 251.699 111.98 250.849 111.805C250.217 111.664 249.652 111.506 249.153 111.33C248.661 111.155 248.247 110.944 247.91 110.698C247.572 110.452 247.316 110.157 247.14 109.813C246.965 109.469 246.877 109.062 246.877 108.591C246.877 108.169 246.968 107.773 247.151 107.4C247.341 107.021 247.607 106.691 247.952 106.41C248.303 106.122 248.724 105.897 249.216 105.736C249.715 105.574 250.273 105.493 250.891 105.493C251.769 105.493 252.521 105.644 253.146 105.946C253.778 106.241 254.26 106.645 254.59 107.158C254.927 107.671 255.095 108.25 255.095 108.896H253.842C253.842 108.503 253.726 108.131 253.494 107.78C253.269 107.428 252.935 107.14 252.493 106.916C252.057 106.691 251.524 106.578 250.891 106.578C250.238 106.578 249.708 106.677 249.3 106.873C248.893 107.07 248.594 107.32 248.405 107.622C248.222 107.924 248.131 108.236 248.131 108.559C248.131 108.812 248.169 109.044 248.247 109.255C248.331 109.458 248.478 109.648 248.689 109.824C248.907 109.999 249.216 110.164 249.616 110.319C250.017 110.473 250.537 110.624 251.176 110.772C252.096 110.976 252.848 111.225 253.431 111.52C254.021 111.808 254.456 112.166 254.737 112.595C255.018 113.016 255.159 113.529 255.159 114.133C255.159 114.604 255.06 115.036 254.864 115.429C254.667 115.815 254.382 116.149 254.01 116.43C253.645 116.711 253.202 116.929 252.683 117.083C252.17 117.238 251.594 117.315 250.955 117.315C249.992 117.315 249.177 117.157 248.51 116.841C247.85 116.518 247.348 116.096 247.003 115.577C246.666 115.05 246.498 114.491 246.498 113.901H247.751C247.794 114.491 247.98 114.958 248.31 115.303C248.64 115.64 249.044 115.879 249.522 116.019C250.006 116.16 250.484 116.23 250.955 116.23C251.601 116.23 252.142 116.135 252.577 115.945C253.013 115.756 253.343 115.506 253.568 115.197C253.792 114.888 253.905 114.555 253.905 114.196ZM262.971 105.704V106.737H257.26V105.704H262.971ZM259.357 102.775H260.611V114.333C260.611 114.86 260.681 115.257 260.821 115.524C260.962 115.791 261.144 115.97 261.369 116.061C261.594 116.153 261.836 116.198 262.096 116.198C262.286 116.198 262.469 116.188 262.644 116.167C262.82 116.139 262.978 116.11 263.118 116.082L263.171 117.147C263.016 117.196 262.816 117.234 262.57 117.262C262.325 117.298 262.079 117.315 261.833 117.315C261.348 117.315 260.92 117.227 260.547 117.052C260.175 116.869 259.884 116.56 259.673 116.125C259.462 115.682 259.357 115.081 259.357 114.323V102.775ZM273.196 115.06V109.181C273.196 108.64 273.083 108.173 272.859 107.78C272.634 107.386 272.304 107.084 271.868 106.873C271.433 106.663 270.895 106.557 270.256 106.557C269.666 106.557 269.139 106.663 268.676 106.873C268.219 107.077 267.857 107.355 267.59 107.706C267.331 108.05 267.201 108.433 267.201 108.854L265.936 108.844C265.936 108.415 266.042 108.001 266.252 107.601C266.463 107.2 266.762 106.842 267.148 106.526C267.534 106.21 267.994 105.96 268.528 105.778C269.069 105.588 269.663 105.493 270.309 105.493C271.124 105.493 271.84 105.63 272.458 105.904C273.083 106.178 273.572 106.589 273.923 107.137C274.274 107.685 274.45 108.373 274.45 109.202V114.713C274.45 115.106 274.478 115.513 274.534 115.935C274.597 116.356 274.685 116.704 274.797 116.978V117.104H273.459C273.375 116.852 273.308 116.535 273.259 116.156C273.217 115.77 273.196 115.405 273.196 115.06ZM273.491 110.466L273.512 111.436H271.036C270.39 111.436 269.81 111.495 269.297 111.615C268.792 111.727 268.363 111.896 268.012 112.121C267.661 112.338 267.39 112.602 267.201 112.911C267.018 113.22 266.927 113.571 266.927 113.965C266.927 114.372 267.028 114.744 267.232 115.081C267.443 115.419 267.738 115.689 268.117 115.893C268.504 116.089 268.96 116.188 269.487 116.188C270.189 116.188 270.808 116.058 271.341 115.798C271.882 115.538 272.328 115.197 272.68 114.776C273.031 114.354 273.266 113.894 273.386 113.396L273.933 114.123C273.842 114.474 273.674 114.836 273.428 115.208C273.189 115.573 272.876 115.917 272.49 116.24C272.104 116.557 271.647 116.816 271.12 117.02C270.6 117.217 270.01 117.315 269.35 117.315C268.605 117.315 267.956 117.175 267.401 116.894C266.853 116.613 266.424 116.23 266.115 115.745C265.813 115.254 265.662 114.699 265.662 114.08C265.662 113.519 265.782 113.016 266.02 112.574C266.259 112.124 266.604 111.745 267.053 111.436C267.51 111.12 268.058 110.881 268.697 110.719C269.343 110.551 270.067 110.466 270.867 110.466H273.491ZM285.307 114.196C285.307 113.887 285.23 113.582 285.075 113.28C284.921 112.978 284.622 112.7 284.18 112.447C283.744 112.194 283.101 111.98 282.251 111.805C281.619 111.664 281.054 111.506 280.555 111.33C280.063 111.155 279.649 110.944 279.312 110.698C278.974 110.452 278.718 110.157 278.542 109.813C278.367 109.469 278.279 109.062 278.279 108.591C278.279 108.169 278.37 107.773 278.553 107.4C278.743 107.021 279.01 106.691 279.354 106.41C279.705 106.122 280.126 105.897 280.618 105.736C281.117 105.574 281.675 105.493 282.293 105.493C283.172 105.493 283.923 105.644 284.548 105.946C285.18 106.241 285.662 106.645 285.992 107.158C286.329 107.671 286.498 108.25 286.498 108.896H285.244C285.244 108.503 285.128 108.131 284.896 107.78C284.671 107.428 284.338 107.14 283.895 106.916C283.46 106.691 282.926 106.578 282.293 106.578C281.64 106.578 281.11 106.677 280.702 106.873C280.295 107.07 279.997 107.32 279.807 107.622C279.624 107.924 279.533 108.236 279.533 108.559C279.533 108.812 279.572 109.044 279.649 109.255C279.733 109.458 279.881 109.648 280.091 109.824C280.309 109.999 280.618 110.164 281.019 110.319C281.419 110.473 281.939 110.624 282.578 110.772C283.498 110.976 284.25 111.225 284.833 111.52C285.423 111.808 285.858 112.166 286.139 112.595C286.42 113.016 286.561 113.529 286.561 114.133C286.561 114.604 286.462 115.036 286.266 115.429C286.069 115.815 285.785 116.149 285.412 116.43C285.047 116.711 284.604 116.929 284.085 117.083C283.572 117.238 282.996 117.315 282.357 117.315C281.394 117.315 280.58 117.157 279.912 116.841C279.252 116.518 278.75 116.096 278.406 115.577C278.068 115.05 277.9 114.491 277.9 113.901H279.154C279.196 114.491 279.382 114.958 279.712 115.303C280.042 115.64 280.446 115.879 280.924 116.019C281.408 116.16 281.886 116.23 282.357 116.23C283.003 116.23 283.544 116.135 283.979 115.945C284.415 115.756 284.745 115.506 284.97 115.197C285.195 114.888 285.307 114.555 285.307 114.196ZM300.383 117.315C299.639 117.315 298.954 117.178 298.329 116.904C297.711 116.63 297.17 116.244 296.706 115.745C296.25 115.246 295.895 114.656 295.642 113.975C295.396 113.287 295.273 112.535 295.273 111.72V111.267C295.273 110.389 295.403 109.595 295.663 108.886C295.923 108.177 296.281 107.569 296.738 107.063C297.194 106.557 297.714 106.171 298.297 105.904C298.887 105.63 299.505 105.493 300.152 105.493C300.875 105.493 301.518 105.623 302.08 105.883C302.642 106.136 303.112 106.498 303.492 106.968C303.878 107.432 304.17 107.983 304.366 108.623C304.563 109.255 304.661 109.954 304.661 110.719V111.488H296.032V110.414H303.407V110.266C303.393 109.627 303.263 109.03 303.018 108.475C302.779 107.913 302.42 107.457 301.943 107.105C301.465 106.754 300.868 106.578 300.152 106.578C299.618 106.578 299.126 106.691 298.676 106.916C298.234 107.14 297.851 107.464 297.528 107.885C297.212 108.299 296.966 108.795 296.79 109.371C296.622 109.94 296.538 110.572 296.538 111.267V111.72C296.538 112.352 296.629 112.943 296.812 113.49C297.001 114.031 297.268 114.509 297.612 114.923C297.964 115.338 298.378 115.661 298.856 115.893C299.333 116.125 299.86 116.24 300.436 116.24C301.11 116.24 301.707 116.118 302.227 115.872C302.747 115.619 303.214 115.222 303.629 114.681L304.419 115.292C304.173 115.657 303.864 115.995 303.492 116.304C303.126 116.613 302.687 116.859 302.175 117.041C301.662 117.224 301.065 117.315 300.383 117.315ZM309.049 108.138V117.104H307.795V105.704H308.996L309.049 108.138ZM308.765 110.698L308.206 110.382C308.248 109.708 308.385 109.076 308.617 108.486C308.849 107.896 309.161 107.376 309.555 106.926C309.955 106.477 310.422 106.125 310.956 105.873C311.497 105.62 312.094 105.493 312.747 105.493C313.316 105.493 313.826 105.57 314.275 105.725C314.725 105.88 315.108 106.125 315.424 106.463C315.74 106.8 315.979 107.232 316.14 107.759C316.309 108.285 316.393 108.928 316.393 109.687V117.104H315.129V109.676C315.129 108.889 315.02 108.275 314.802 107.832C314.584 107.383 314.275 107.063 313.875 106.873C313.474 106.684 313 106.589 312.452 106.589C311.848 106.589 311.318 106.722 310.861 106.989C310.412 107.249 310.032 107.59 309.723 108.011C309.421 108.426 309.19 108.872 309.028 109.35C308.866 109.82 308.779 110.27 308.765 110.698ZM330.426 116.23C330.96 116.23 331.459 116.132 331.923 115.935C332.393 115.731 332.78 115.433 333.082 115.039C333.391 114.639 333.566 114.151 333.608 113.575H334.81C334.774 114.298 334.553 114.944 334.146 115.513C333.745 116.075 333.219 116.518 332.565 116.841C331.919 117.157 331.206 117.315 330.426 117.315C329.633 117.315 328.93 117.171 328.319 116.883C327.715 116.595 327.209 116.195 326.802 115.682C326.394 115.162 326.085 114.558 325.875 113.87C325.671 113.174 325.569 112.426 325.569 111.625V111.183C325.569 110.382 325.671 109.638 325.875 108.949C326.085 108.254 326.394 107.65 326.802 107.137C327.209 106.617 327.715 106.213 328.319 105.925C328.923 105.637 329.622 105.493 330.416 105.493C331.231 105.493 331.961 105.658 332.607 105.988C333.261 106.319 333.78 106.786 334.167 107.39C334.56 107.994 334.774 108.71 334.81 109.539H333.608C333.573 108.928 333.412 108.401 333.124 107.959C332.836 107.516 332.456 107.176 331.986 106.937C331.515 106.698 330.992 106.578 330.416 106.578C329.77 106.578 329.218 106.705 328.762 106.958C328.305 107.204 327.933 107.544 327.645 107.98C327.364 108.408 327.157 108.9 327.023 109.455C326.89 110.003 326.823 110.579 326.823 111.183V111.625C326.823 112.237 326.886 112.82 327.013 113.375C327.146 113.922 327.353 114.411 327.634 114.839C327.922 115.268 328.294 115.608 328.751 115.861C329.215 116.107 329.773 116.23 330.426 116.23ZM344.929 115.06V109.181C344.929 108.64 344.817 108.173 344.592 107.78C344.367 107.386 344.037 107.084 343.602 106.873C343.166 106.663 342.629 106.557 341.99 106.557C341.399 106.557 340.873 106.663 340.409 106.873C339.952 107.077 339.591 107.355 339.324 107.706C339.064 108.05 338.934 108.433 338.934 108.854L337.67 108.844C337.67 108.415 337.775 108.001 337.986 107.601C338.196 107.2 338.495 106.842 338.881 106.526C339.268 106.21 339.728 105.96 340.262 105.778C340.802 105.588 341.396 105.493 342.042 105.493C342.857 105.493 343.574 105.63 344.192 105.904C344.817 106.178 345.305 106.589 345.656 107.137C346.007 107.685 346.183 108.373 346.183 109.202V114.713C346.183 115.106 346.211 115.513 346.267 115.935C346.331 116.356 346.418 116.704 346.531 116.978V117.104H345.193C345.108 116.852 345.042 116.535 344.992 116.156C344.95 115.77 344.929 115.405 344.929 115.06ZM345.224 110.466L345.245 111.436H342.769C342.123 111.436 341.543 111.495 341.031 111.615C340.525 111.727 340.096 111.896 339.745 112.121C339.394 112.338 339.124 112.602 338.934 112.911C338.751 113.22 338.66 113.571 338.66 113.965C338.66 114.372 338.762 114.744 338.966 115.081C339.176 115.419 339.471 115.689 339.851 115.893C340.237 116.089 340.694 116.188 341.22 116.188C341.923 116.188 342.541 116.058 343.075 115.798C343.616 115.538 344.062 115.197 344.413 114.776C344.764 114.354 344.999 113.894 345.119 113.396L345.667 114.123C345.575 114.474 345.407 114.836 345.161 115.208C344.922 115.573 344.61 115.917 344.223 116.24C343.837 116.557 343.38 116.816 342.854 117.02C342.334 117.217 341.744 117.315 341.083 117.315C340.339 117.315 339.689 117.175 339.134 116.894C338.586 116.613 338.158 116.23 337.849 115.745C337.547 115.254 337.396 114.699 337.396 114.08C337.396 113.519 337.515 113.016 337.754 112.574C337.993 112.124 338.337 111.745 338.786 111.436C339.243 111.12 339.791 110.881 340.43 110.719C341.076 110.551 341.8 110.466 342.601 110.466H345.224ZM351.456 107.896V121.488H350.192V105.704H351.372L351.456 107.896ZM359.379 111.299V111.52C359.379 112.37 359.281 113.15 359.084 113.859C358.888 114.569 358.603 115.183 358.231 115.703C357.866 116.216 357.413 116.613 356.872 116.894C356.331 117.175 355.716 117.315 355.028 117.315C354.346 117.315 353.739 117.21 353.205 116.999C352.671 116.788 352.211 116.49 351.825 116.103C351.445 115.71 351.14 115.254 350.908 114.734C350.683 114.207 350.525 113.631 350.434 113.006V110.087C350.539 109.399 350.711 108.774 350.95 108.212C351.189 107.65 351.495 107.165 351.867 106.758C352.246 106.35 352.696 106.038 353.216 105.82C353.735 105.602 354.329 105.493 354.996 105.493C355.692 105.493 356.31 105.63 356.851 105.904C357.399 106.171 357.859 106.561 358.231 107.074C358.61 107.579 358.895 108.191 359.084 108.907C359.281 109.616 359.379 110.414 359.379 111.299ZM358.115 111.52V111.299C358.115 110.632 358.045 110.013 357.904 109.444C357.771 108.875 357.564 108.38 357.283 107.959C357.009 107.53 356.657 107.197 356.229 106.958C355.808 106.719 355.305 106.6 354.722 106.6C354.118 106.6 353.602 106.701 353.173 106.905C352.752 107.102 352.401 107.365 352.12 107.695C351.839 108.018 351.618 108.373 351.456 108.76C351.294 109.146 351.175 109.525 351.098 109.897V113.259C351.231 113.792 351.445 114.288 351.74 114.744C352.035 115.194 352.429 115.556 352.921 115.83C353.419 116.096 354.027 116.23 354.743 116.23C355.319 116.23 355.818 116.11 356.24 115.872C356.661 115.633 357.009 115.299 357.283 114.871C357.564 114.442 357.771 113.943 357.904 113.375C358.045 112.806 358.115 112.187 358.115 111.52ZM369.762 115.06V109.181C369.762 108.64 369.65 108.173 369.425 107.78C369.201 107.386 368.87 107.084 368.435 106.873C367.999 106.663 367.462 106.557 366.823 106.557C366.233 106.557 365.706 106.663 365.242 106.873C364.786 107.077 364.424 107.355 364.157 107.706C363.897 108.05 363.767 108.433 363.767 108.854L362.503 108.844C362.503 108.415 362.608 108.001 362.819 107.601C363.03 107.2 363.328 106.842 363.715 106.526C364.101 106.21 364.561 105.96 365.095 105.778C365.636 105.588 366.229 105.493 366.875 105.493C367.69 105.493 368.407 105.63 369.025 105.904C369.65 106.178 370.138 106.589 370.49 107.137C370.841 107.685 371.016 108.373 371.016 109.202V114.713C371.016 115.106 371.044 115.513 371.101 115.935C371.164 116.356 371.252 116.704 371.364 116.978V117.104H370.026C369.942 116.852 369.875 116.535 369.826 116.156C369.784 115.77 369.762 115.405 369.762 115.06ZM370.058 110.466L370.079 111.436H367.602C366.956 111.436 366.377 111.495 365.864 111.615C365.358 111.727 364.93 111.896 364.579 112.121C364.227 112.338 363.957 112.602 363.767 112.911C363.585 113.22 363.493 113.571 363.493 113.965C363.493 114.372 363.595 114.744 363.799 115.081C364.01 115.419 364.305 115.689 364.684 115.893C365.07 116.089 365.527 116.188 366.054 116.188C366.756 116.188 367.374 116.058 367.908 115.798C368.449 115.538 368.895 115.197 369.246 114.776C369.597 114.354 369.833 113.894 369.952 113.396L370.5 114.123C370.409 114.474 370.24 114.836 369.994 115.208C369.755 115.573 369.443 115.917 369.057 116.24C368.67 116.557 368.214 116.816 367.687 117.02C367.167 117.217 366.577 117.315 365.917 117.315C365.172 117.315 364.522 117.175 363.967 116.894C363.42 116.613 362.991 116.23 362.682 115.745C362.38 115.254 362.229 114.699 362.229 114.08C362.229 113.519 362.348 113.016 362.587 112.574C362.826 112.124 363.17 111.745 363.62 111.436C364.076 111.12 364.624 110.881 365.263 110.719C365.91 110.551 366.633 110.466 367.434 110.466H370.058ZM379.25 116.23C379.784 116.23 380.283 116.132 380.746 115.935C381.217 115.731 381.603 115.433 381.905 115.039C382.214 114.639 382.39 114.151 382.432 113.575H383.633C383.598 114.298 383.377 114.944 382.969 115.513C382.569 116.075 382.042 116.518 381.389 116.841C380.743 117.157 380.03 117.315 379.25 117.315C378.456 117.315 377.754 117.171 377.143 116.883C376.539 116.595 376.033 116.195 375.625 115.682C375.218 115.162 374.909 114.558 374.698 113.87C374.494 113.174 374.393 112.426 374.393 111.625V111.183C374.393 110.382 374.494 109.638 374.698 108.949C374.909 108.254 375.218 107.65 375.625 107.137C376.033 106.617 376.539 106.213 377.143 105.925C377.747 105.637 378.446 105.493 379.239 105.493C380.054 105.493 380.785 105.658 381.431 105.988C382.084 106.319 382.604 106.786 382.99 107.39C383.384 107.994 383.598 108.71 383.633 109.539H382.432C382.397 108.928 382.235 108.401 381.947 107.959C381.659 107.516 381.28 107.176 380.809 106.937C380.339 106.698 379.815 106.578 379.239 106.578C378.593 106.578 378.042 106.705 377.585 106.958C377.129 107.204 376.756 107.544 376.468 107.98C376.187 108.408 375.98 108.9 375.847 109.455C375.713 110.003 375.646 110.579 375.646 111.183V111.625C375.646 112.237 375.71 112.82 375.836 113.375C375.97 113.922 376.177 114.411 376.458 114.839C376.746 115.268 377.118 115.608 377.575 115.861C378.038 116.107 378.597 116.23 379.25 116.23ZM388.221 105.704V117.104H386.967V105.704H388.221ZM386.746 102.406C386.746 102.167 386.82 101.967 386.967 101.805C387.122 101.637 387.333 101.553 387.6 101.553C387.866 101.553 388.077 101.637 388.232 101.805C388.393 101.967 388.474 102.167 388.474 102.406C388.474 102.638 388.393 102.838 388.232 103.007C388.077 103.168 387.866 103.249 387.6 103.249C387.333 103.249 387.122 103.168 386.967 103.007C386.82 102.838 386.746 102.638 386.746 102.406ZM396.623 105.704V106.737H390.913V105.704H396.623ZM393.009 102.775H394.263V114.333C394.263 114.86 394.333 115.257 394.474 115.524C394.614 115.791 394.797 115.97 395.022 116.061C395.247 116.153 395.489 116.198 395.749 116.198C395.939 116.198 396.121 116.188 396.297 116.167C396.472 116.139 396.63 116.11 396.771 116.082L396.824 117.147C396.669 117.196 396.469 117.234 396.223 117.262C395.977 117.298 395.731 117.315 395.485 117.315C395.001 117.315 394.572 117.227 394.2 117.052C393.828 116.869 393.536 116.56 393.325 116.125C393.115 115.682 393.009 115.081 393.009 114.323V102.775ZM406.848 115.06V109.181C406.848 108.64 406.736 108.173 406.511 107.78C406.287 107.386 405.956 107.084 405.521 106.873C405.085 106.663 404.548 106.557 403.909 106.557C403.319 106.557 402.792 106.663 402.328 106.873C401.872 107.077 401.51 107.355 401.243 107.706C400.983 108.05 400.853 108.433 400.853 108.854L399.589 108.844C399.589 108.415 399.694 108.001 399.905 107.601C400.116 107.2 400.414 106.842 400.8 106.526C401.187 106.21 401.647 105.96 402.181 105.778C402.722 105.588 403.315 105.493 403.961 105.493C404.776 105.493 405.493 105.63 406.111 105.904C406.736 106.178 407.224 106.589 407.575 107.137C407.927 107.685 408.102 108.373 408.102 109.202V114.713C408.102 115.106 408.13 115.513 408.187 115.935C408.25 116.356 408.338 116.704 408.45 116.978V117.104H407.112C407.028 116.852 406.961 116.535 406.912 116.156C406.87 115.77 406.848 115.405 406.848 115.06ZM407.143 110.466L407.165 111.436H404.688C404.042 111.436 403.463 111.495 402.95 111.615C402.444 111.727 402.016 111.896 401.664 112.121C401.313 112.338 401.043 112.602 400.853 112.911C400.671 113.22 400.579 113.571 400.579 113.965C400.579 114.372 400.681 114.744 400.885 115.081C401.096 115.419 401.391 115.689 401.77 115.893C402.156 116.089 402.613 116.188 403.14 116.188C403.842 116.188 404.46 116.058 404.994 115.798C405.535 115.538 405.981 115.197 406.332 114.776C406.683 114.354 406.919 113.894 407.038 113.396L407.586 114.123C407.495 114.474 407.326 114.836 407.08 115.208C406.841 115.573 406.529 115.917 406.143 116.24C405.756 116.557 405.3 116.816 404.773 117.02C404.253 117.217 403.663 117.315 403.003 117.315C402.258 117.315 401.608 117.175 401.053 116.894C400.505 116.613 400.077 116.23 399.768 115.745C399.466 115.254 399.315 114.699 399.315 114.08C399.315 113.519 399.434 113.016 399.673 112.574C399.912 112.124 400.256 111.745 400.706 111.436C401.162 111.12 401.71 110.881 402.349 110.719C402.996 110.551 403.719 110.466 404.52 110.466H407.143ZM416.336 116.23C416.87 116.23 417.369 116.132 417.832 115.935C418.303 115.731 418.689 115.433 418.991 115.039C419.3 114.639 419.476 114.151 419.518 113.575H420.719C420.684 114.298 420.463 114.944 420.055 115.513C419.655 116.075 419.128 116.518 418.475 116.841C417.829 117.157 417.116 117.315 416.336 117.315C415.542 117.315 414.84 117.171 414.229 116.883C413.625 116.595 413.119 116.195 412.711 115.682C412.304 115.162 411.995 114.558 411.784 113.87C411.58 113.174 411.479 112.426 411.479 111.625V111.183C411.479 110.382 411.58 109.638 411.784 108.949C411.995 108.254 412.304 107.65 412.711 107.137C413.119 106.617 413.625 106.213 414.229 105.925C414.833 105.637 415.532 105.493 416.325 105.493C417.14 105.493 417.871 105.658 418.517 105.988C419.17 106.319 419.69 106.786 420.076 107.39C420.47 107.994 420.684 108.71 420.719 109.539H419.518C419.483 108.928 419.321 108.401 419.033 107.959C418.745 107.516 418.366 107.176 417.895 106.937C417.425 106.698 416.901 106.578 416.325 106.578C415.679 106.578 415.128 106.705 414.671 106.958C414.215 107.204 413.842 107.544 413.554 107.98C413.273 108.408 413.066 108.9 412.933 109.455C412.799 110.003 412.732 110.579 412.732 111.183V111.625C412.732 112.237 412.796 112.82 412.922 113.375C413.056 113.922 413.263 114.411 413.544 114.839C413.832 115.268 414.204 115.608 414.661 115.861C415.124 116.107 415.683 116.23 416.336 116.23ZM425.307 105.704V117.104H424.053V105.704H425.307ZM423.832 102.406C423.832 102.167 423.906 101.967 424.053 101.805C424.208 101.637 424.419 101.553 424.685 101.553C424.952 101.553 425.163 101.637 425.318 101.805C425.479 101.967 425.56 102.167 425.56 102.406C425.56 102.638 425.479 102.838 425.318 103.007C425.163 103.168 424.952 103.249 424.685 103.249C424.419 103.249 424.208 103.168 424.053 103.007C423.906 102.838 423.832 102.638 423.832 102.406ZM428.705 111.583V111.236C428.705 110.407 428.824 109.641 429.063 108.939C429.302 108.236 429.642 107.629 430.085 107.116C430.534 106.603 431.072 106.206 431.697 105.925C432.322 105.637 433.017 105.493 433.783 105.493C434.556 105.493 435.255 105.637 435.88 105.925C436.505 106.206 437.042 106.603 437.492 107.116C437.942 107.629 438.286 108.236 438.525 108.939C438.763 109.641 438.883 110.407 438.883 111.236V111.583C438.883 112.412 438.763 113.178 438.525 113.88C438.286 114.576 437.942 115.18 437.492 115.693C437.049 116.205 436.516 116.606 435.89 116.894C435.265 117.175 434.57 117.315 433.804 117.315C433.032 117.315 432.333 117.175 431.707 116.894C431.082 116.606 430.545 116.205 430.095 115.693C429.646 115.18 429.302 114.576 429.063 113.88C428.824 113.178 428.705 112.412 428.705 111.583ZM429.958 111.236V111.583C429.958 112.208 430.043 112.802 430.211 113.364C430.38 113.919 430.626 114.414 430.949 114.85C431.272 115.278 431.672 115.615 432.15 115.861C432.628 116.107 433.179 116.23 433.804 116.23C434.422 116.23 434.967 116.107 435.437 115.861C435.915 115.615 436.315 115.278 436.639 114.85C436.962 114.414 437.204 113.919 437.366 113.364C437.534 112.802 437.618 112.208 437.618 111.583V111.236C437.618 110.617 437.534 110.031 437.366 109.476C437.204 108.921 436.958 108.426 436.628 107.99C436.305 107.555 435.904 107.211 435.427 106.958C434.949 106.705 434.401 106.578 433.783 106.578C433.165 106.578 432.617 106.705 432.139 106.958C431.669 107.211 431.268 107.555 430.938 107.99C430.615 108.426 430.369 108.921 430.201 109.476C430.039 110.031 429.958 110.617 429.958 111.236ZM433.024 103.892L435.037 100.941H436.554L434.12 103.892H433.024ZM443.397 108.138V117.104H442.143V105.704H443.344L443.397 108.138ZM443.113 110.698L442.554 110.382C442.596 109.708 442.733 109.076 442.965 108.486C443.197 107.896 443.509 107.376 443.903 106.926C444.303 106.477 444.77 106.125 445.304 105.873C445.845 105.62 446.442 105.493 447.095 105.493C447.664 105.493 448.174 105.57 448.623 105.725C449.073 105.88 449.456 106.125 449.772 106.463C450.088 106.8 450.327 107.232 450.488 107.759C450.657 108.285 450.741 108.928 450.741 109.687V117.104H449.477V109.676C449.477 108.889 449.368 108.275 449.15 107.832C448.932 107.383 448.623 107.063 448.223 106.873C447.822 106.684 447.348 106.589 446.8 106.589C446.196 106.589 445.666 106.722 445.209 106.989C444.76 107.249 444.38 107.59 444.071 108.011C443.769 108.426 443.538 108.872 443.376 109.35C443.214 109.82 443.127 110.27 443.113 110.698Z" fill="black"/>
<path d="M184.484 68.484L178.442 79.2733H172.4L166.358 68.484V85.3154H158.589V55.1051H166.789L175.421 71.0734L184.052 55.1051H192.252V85.3154H184.484V68.484ZM202.843 85.3154H194.427L205.864 55.1051H214.495L225.932 85.3154H217.516L215.574 79.9207H204.785L202.843 85.3154ZM206.727 74.3102H213.632L210.18 64.1682L206.727 74.3102ZM248.392 92.2206C246.378 92.5083 244.451 92.6522 242.609 92.6522C240.768 92.6522 239.257 92.0624 238.078 90.8827C236.898 89.7031 236.308 88.135 236.308 86.1785V85.747H235.014C231.993 85.747 229.792 85.0708 228.411 83.7186C227.058 82.3375 226.382 80.1365 226.382 77.1155V63.3051C226.382 60.284 227.058 58.0974 228.411 56.7451C229.792 55.3641 231.993 54.6736 235.014 54.6736H245.803C248.824 54.6736 251.011 55.3641 252.363 56.7451C253.744 58.0974 254.435 60.284 254.435 63.3051V77.1155C254.435 80.1365 253.744 82.3375 252.363 83.7186C251.011 85.0708 248.824 85.747 245.803 85.747H243.645V86.1785C243.645 86.6101 243.789 86.9698 244.077 87.2575C244.364 87.5452 244.724 87.6891 245.156 87.6891H248.392V92.2206ZM246.666 63.3051C246.666 61.5788 245.803 60.7156 244.077 60.7156H236.74C235.014 60.7156 234.151 61.5788 234.151 63.3051V77.1155C234.151 78.8418 235.014 79.7049 236.74 79.7049H244.077C245.803 79.7049 246.666 78.8418 246.666 77.1155V63.3051ZM278.191 55.1051H285.96V77.1155C285.96 80.1365 285.269 82.3375 283.888 83.7186C282.536 85.0708 280.349 85.747 277.328 85.747H267.402C264.381 85.747 262.18 85.0708 260.799 83.7186C259.447 82.3375 258.771 80.1365 258.771 77.1155V55.1051H266.539V77.1155C266.539 78.8418 267.402 79.7049 269.128 79.7049H275.602C277.328 79.7049 278.191 78.8418 278.191 77.1155V55.1051ZM305.381 85.3154H289.844V79.2733H293.728V61.1472H289.844V55.1051H305.381V61.1472H301.496V79.2733H305.381V85.3154ZM335.588 85.3154H327.388L317.03 67.1892V85.3154H309.261V55.1051H317.461L327.819 73.2313V55.1051H335.588V85.3154ZM346.181 85.3154H337.766L349.202 55.1051H357.834L369.271 85.3154H360.855L358.913 79.9207H348.123L346.181 85.3154ZM350.066 74.3102H356.971L353.518 64.1682L350.066 74.3102ZM371.427 55.1051H389.553C392.574 55.1051 394.761 55.7957 396.113 57.1767C397.494 58.529 398.185 60.7156 398.185 63.7366V67.6208C398.185 70.0089 397.782 71.8646 396.976 73.1881C396.199 74.5116 394.948 75.3892 393.221 75.8207L398.616 85.3154H390.2L385.237 76.2523H379.195V85.3154H371.427V55.1051ZM390.416 63.7366C390.416 62.0103 389.553 61.1472 387.827 61.1472H379.195V70.2103H387.827C389.553 70.2103 390.416 69.3471 390.416 67.6208V63.7366ZM416.73 85.3154H401.194V79.2733H405.078V61.1472H401.194V55.1051H416.73V61.1472H412.846V79.2733H416.73V85.3154ZM426.006 85.3154H417.59L429.027 55.1051H437.658L449.095 85.3154H440.679L438.737 79.9207H427.948L426.006 85.3154ZM429.89 74.3102H436.795L433.343 64.1682L429.89 74.3102Z" fill="#121F3D"/>
<path d="M182.542 40H158.589V9.78974H182.542V15.8318H166.358V21.6581H179.089V27.7001H166.358V33.958H182.542V40ZM212.31 40H204.111L193.753 21.8738V40H185.984V9.78974H194.184L204.542 27.9159V9.78974H212.31V40ZM232.183 40H224.415V15.8318H215.352V9.78974H241.246V15.8318H232.183V40ZM244.272 9.78974H262.398C265.419 9.78974 267.606 10.4803 268.958 11.8613C270.339 13.2136 271.03 15.4002 271.03 18.4212V22.3054C271.03 24.6935 270.627 26.5492 269.822 27.8727C269.045 29.1962 267.793 30.0738 266.067 30.5053L271.462 40H263.046L258.083 30.9369H252.041V40H244.272V9.78974ZM263.262 18.4212C263.262 16.6949 262.398 15.8318 260.672 15.8318H252.041V24.8949H260.672C262.398 24.8949 263.262 24.0317 263.262 22.3054V18.4212ZM299.286 40H275.334V9.78974H299.286V15.8318H283.102V21.6581H295.834V27.7001H283.102V33.958H299.286V40ZM329.055 40H320.855L310.497 21.8738V40H302.729V9.78974H310.929L321.287 27.9159V9.78974H329.055V40ZM339.649 40H331.233L342.67 9.78974H351.301L362.738 40H354.322L352.38 34.6053H341.591L339.649 40ZM343.533 28.9948H350.438L346.986 18.8528L343.533 28.9948ZM390.789 23.1686L384.747 33.958H378.705L372.663 23.1686V40H364.894V9.78974H373.094L381.726 25.758L390.357 9.78974H398.557V40H390.789V23.1686ZM417.995 40H402.458V33.958H406.342V15.8318H402.458V9.78974H417.995V15.8318H414.111V33.958H417.995V40ZM445.828 40H421.876V9.78974H445.828V15.8318H429.644V21.6581H442.375V27.7001H429.644V33.958H445.828V40ZM475.597 40H467.397L457.039 21.8738V40H449.271V9.78974H457.47L467.828 27.9159V9.78974H475.597V40ZM495.469 40H487.701V15.8318H478.638V9.78974H504.532V15.8318H495.469V40ZM526.979 17.9897C526.979 16.2634 526.116 15.4002 524.39 15.4002H517.053C515.327 15.4002 514.464 16.2634 514.464 17.9897V31.8001C514.464 33.5264 515.327 34.3895 517.053 34.3895H524.39C526.116 34.3895 526.979 33.5264 526.979 31.8001V17.9897ZM534.748 31.8001C534.748 34.8211 534.057 37.0221 532.676 38.4032C531.324 39.7554 529.137 40.4316 526.116 40.4316H515.327C512.306 40.4316 510.105 39.7554 508.724 38.4032C507.371 37.0221 506.695 34.8211 506.695 31.8001V17.9897C506.695 14.9686 507.371 12.782 508.724 11.4297C510.105 10.0487 512.306 9.35816 515.327 9.35816H526.116C529.137 9.35816 531.324 10.0487 532.676 11.4297C534.057 12.782 534.748 14.9686 534.748 17.9897V31.8001Z" fill="#121F3D"/>
<path d="M82.6596 12.6322H106.277L129.894 61.2627L106.277 109.654H82.6596L106.277 61.2627L82.6596 12.6322Z" fill="#1098F7"/>
<path d="M43.1915 6.24924H70L96.8085 61.2785L70 116.036H43.1915L70 61.2785L43.1915 6.24924Z" fill="#1098F7"/>
<path d="M0 0H29.8085L59.617 61.1873L29.8085 122.073H0L29.8085 61.1873L0 0Z" fill="#1098F7"/>
</svg>
