<svg width="731" height="167" viewBox="0 0 731 167" fill="none" xmlns="http://www.w3.org/2000/svg">
<path d="M227.995 156.243V159.096H216.915V156.243H227.995ZM217.933 138.226V159.096H214.335V138.226H217.933ZM226.547 146.941V149.75H216.915V146.941H226.547ZM227.923 138.226V141.093H216.915V138.226H227.923ZM240.17 154.896C240.17 154.552 240.084 154.242 239.912 153.964C239.74 153.678 239.411 153.42 238.923 153.19C238.446 152.961 237.738 152.751 236.802 152.56C235.98 152.378 235.225 152.163 234.537 151.915C233.859 151.657 233.276 151.346 232.789 150.983C232.301 150.62 231.924 150.19 231.656 149.693C231.389 149.196 231.255 148.623 231.255 147.973C231.255 147.342 231.394 146.745 231.671 146.181C231.948 145.618 232.344 145.121 232.86 144.691C233.376 144.261 234.002 143.922 234.738 143.673C235.483 143.425 236.315 143.3 237.232 143.3C238.532 143.3 239.645 143.52 240.572 143.96C241.508 144.39 242.225 144.977 242.722 145.723C243.219 146.459 243.467 147.29 243.467 148.217H240.013C240.013 147.806 239.908 147.424 239.697 147.07C239.497 146.707 239.191 146.416 238.78 146.196C238.369 145.966 237.853 145.852 237.232 145.852C236.64 145.852 236.147 145.947 235.756 146.138C235.373 146.32 235.087 146.559 234.896 146.855C234.714 147.151 234.623 147.476 234.623 147.83C234.623 148.088 234.671 148.322 234.767 148.532C234.872 148.733 235.044 148.919 235.283 149.091C235.522 149.254 235.846 149.406 236.257 149.55C236.678 149.693 237.203 149.832 237.834 149.965C239.019 150.214 240.037 150.534 240.887 150.926C241.747 151.308 242.406 151.805 242.865 152.416C243.324 153.018 243.553 153.783 243.553 154.71C243.553 155.398 243.405 156.028 243.109 156.602C242.822 157.166 242.402 157.658 241.847 158.078C241.293 158.489 240.629 158.809 239.855 159.038C239.091 159.268 238.231 159.382 237.275 159.382C235.87 159.382 234.681 159.134 233.706 158.637C232.731 158.131 231.991 157.486 231.484 156.702C230.987 155.909 230.739 155.087 230.739 154.237H234.079C234.117 154.877 234.294 155.388 234.609 155.77C234.934 156.143 235.335 156.415 235.813 156.587C236.3 156.75 236.802 156.831 237.318 156.831C237.939 156.831 238.46 156.75 238.88 156.587C239.301 156.415 239.621 156.186 239.841 155.899C240.06 155.603 240.17 155.269 240.17 154.896ZM250.927 146.568V165.058H247.472V143.587H250.654L250.927 146.568ZM261.032 151.198V151.499C261.032 152.627 260.898 153.673 260.63 154.638C260.372 155.594 259.985 156.43 259.469 157.146C258.963 157.854 258.337 158.403 257.592 158.795C256.846 159.187 255.986 159.382 255.012 159.382C254.047 159.382 253.201 159.206 252.475 158.852C251.758 158.489 251.151 157.978 250.654 157.318C250.157 156.659 249.756 155.885 249.45 154.996C249.154 154.098 248.944 153.114 248.82 152.044V150.883C248.944 149.746 249.154 148.714 249.45 147.787C249.756 146.86 250.157 146.062 250.654 145.393C251.151 144.724 251.758 144.208 252.475 143.845C253.191 143.482 254.027 143.3 254.983 143.3C255.958 143.3 256.822 143.492 257.577 143.874C258.332 144.246 258.968 144.782 259.484 145.479C260 146.167 260.387 146.998 260.645 147.973C260.903 148.938 261.032 150.013 261.032 151.198ZM257.577 151.499V151.198C257.577 150.481 257.51 149.817 257.377 149.206C257.243 148.585 257.033 148.04 256.746 147.572C256.459 147.104 256.091 146.74 255.642 146.482C255.203 146.215 254.672 146.081 254.051 146.081C253.44 146.081 252.914 146.186 252.475 146.396C252.035 146.597 251.667 146.879 251.371 147.242C251.075 147.605 250.845 148.03 250.683 148.518C250.521 148.996 250.406 149.516 250.339 150.08V152.861C250.454 153.549 250.65 154.179 250.927 154.753C251.204 155.326 251.596 155.785 252.102 156.129C252.618 156.463 253.277 156.63 254.08 156.63C254.701 156.63 255.231 156.497 255.671 156.229C256.111 155.962 256.469 155.594 256.746 155.125C257.033 154.648 257.243 154.098 257.377 153.477C257.51 152.856 257.577 152.197 257.577 151.499ZM271.688 159.382C270.541 159.382 269.504 159.196 268.577 158.823C267.66 158.441 266.876 157.911 266.227 157.232C265.586 156.554 265.094 155.756 264.75 154.839C264.406 153.921 264.234 152.932 264.234 151.872V151.298C264.234 150.085 264.411 148.986 264.765 148.002C265.118 147.018 265.61 146.177 266.241 145.479C266.872 144.772 267.617 144.232 268.477 143.859C269.337 143.487 270.269 143.3 271.272 143.3C272.38 143.3 273.35 143.487 274.182 143.859C275.013 144.232 275.701 144.758 276.246 145.436C276.8 146.105 277.211 146.903 277.478 147.83C277.755 148.757 277.894 149.779 277.894 150.897V152.373H265.911V149.894H274.483V149.621C274.463 149 274.339 148.417 274.11 147.873C273.89 147.328 273.551 146.889 273.092 146.554C272.634 146.22 272.022 146.052 271.258 146.052C270.684 146.052 270.173 146.177 269.724 146.425C269.284 146.664 268.916 147.013 268.62 147.471C268.324 147.93 268.095 148.484 267.932 149.134C267.779 149.774 267.703 150.496 267.703 151.298V151.872C267.703 152.55 267.794 153.181 267.975 153.764C268.166 154.337 268.443 154.839 268.807 155.269C269.17 155.699 269.609 156.038 270.125 156.286C270.641 156.525 271.229 156.645 271.888 156.645C272.72 156.645 273.46 156.478 274.11 156.143C274.76 155.809 275.323 155.336 275.801 154.724L277.622 156.487C277.287 156.974 276.852 157.443 276.317 157.892C275.782 158.331 275.128 158.69 274.354 158.967C273.589 159.244 272.7 159.382 271.688 159.382ZM287.805 156.63C288.368 156.63 288.875 156.521 289.324 156.301C289.783 156.071 290.15 155.756 290.428 155.355C290.714 154.953 290.872 154.49 290.901 153.964H294.154C294.135 154.968 293.839 155.88 293.266 156.702C292.692 157.524 291.933 158.178 290.987 158.666C290.041 159.144 288.994 159.382 287.848 159.382C286.663 159.382 285.631 159.182 284.752 158.78C283.872 158.37 283.141 157.806 282.559 157.089C281.976 156.372 281.536 155.546 281.24 154.609C280.953 153.673 280.81 152.67 280.81 151.599V151.098C280.81 150.028 280.953 149.024 281.24 148.088C281.536 147.142 281.976 146.31 282.559 145.594C283.141 144.877 283.872 144.318 284.752 143.917C285.631 143.506 286.658 143.3 287.833 143.3C289.075 143.3 290.165 143.549 291.101 144.046C292.038 144.533 292.773 145.216 293.309 146.095C293.853 146.965 294.135 147.978 294.154 149.134H290.901C290.872 148.561 290.729 148.045 290.471 147.586C290.222 147.118 289.869 146.745 289.41 146.468C288.961 146.191 288.421 146.052 287.79 146.052C287.093 146.052 286.515 146.196 286.056 146.482C285.597 146.76 285.239 147.142 284.981 147.629C284.723 148.107 284.537 148.647 284.422 149.249C284.317 149.841 284.264 150.458 284.264 151.098V151.599C284.264 152.24 284.317 152.861 284.422 153.463C284.527 154.065 284.709 154.605 284.967 155.082C285.234 155.551 285.597 155.928 286.056 156.215C286.515 156.492 287.097 156.63 287.805 156.63ZM301.384 143.587V159.096H297.916V143.587H301.384ZM297.686 139.516C297.686 138.991 297.858 138.556 298.202 138.212C298.556 137.859 299.043 137.682 299.664 137.682C300.276 137.682 300.759 137.859 301.112 138.212C301.466 138.556 301.642 138.991 301.642 139.516C301.642 140.032 301.466 140.462 301.112 140.806C300.759 141.15 300.276 141.322 299.664 141.322C299.043 141.322 298.556 141.15 298.202 140.806C297.858 140.462 297.686 140.032 297.686 139.516ZM314.792 155.985V148.589C314.792 148.035 314.692 147.557 314.491 147.156C314.291 146.755 313.985 146.444 313.574 146.224C313.173 146.005 312.666 145.895 312.055 145.895C311.491 145.895 311.004 145.99 310.593 146.181C310.182 146.373 309.862 146.631 309.632 146.955C309.403 147.28 309.288 147.648 309.288 148.059H305.848C305.848 147.448 305.997 146.855 306.293 146.282C306.589 145.708 307.019 145.197 307.583 144.748C308.147 144.299 308.82 143.945 309.604 143.687C310.387 143.429 311.266 143.3 312.241 143.3C313.407 143.3 314.439 143.496 315.337 143.888C316.245 144.28 316.957 144.872 317.473 145.665C317.998 146.449 318.261 147.433 318.261 148.618V155.512C318.261 156.22 318.309 156.855 318.404 157.419C318.51 157.973 318.658 158.456 318.849 158.866V159.096H315.308C315.146 158.723 315.017 158.25 314.921 157.677C314.835 157.094 314.792 156.53 314.792 155.985ZM315.294 149.664L315.323 151.8H312.843C312.203 151.8 311.639 151.862 311.152 151.986C310.664 152.101 310.258 152.273 309.933 152.502C309.609 152.732 309.365 153.009 309.202 153.334C309.04 153.659 308.959 154.027 308.959 154.437C308.959 154.848 309.054 155.226 309.245 155.57C309.437 155.904 309.714 156.167 310.077 156.358C310.449 156.549 310.899 156.645 311.424 156.645C312.131 156.645 312.748 156.501 313.273 156.215C313.808 155.919 314.229 155.56 314.534 155.14C314.84 154.71 315.003 154.304 315.022 153.921L316.14 155.455C316.025 155.847 315.829 156.267 315.552 156.716C315.275 157.166 314.912 157.596 314.463 158.006C314.023 158.408 313.493 158.737 312.872 158.995C312.26 159.253 311.553 159.382 310.75 159.382C309.738 159.382 308.835 159.182 308.041 158.78C307.248 158.37 306.627 157.82 306.178 157.132C305.729 156.435 305.504 155.646 305.504 154.767C305.504 153.945 305.657 153.219 305.963 152.588C306.278 151.948 306.737 151.413 307.339 150.983C307.951 150.553 308.696 150.228 309.575 150.008C310.454 149.779 311.458 149.664 312.585 149.664H315.294ZM326.452 137.08V159.096H322.983V137.08H326.452ZM334.814 143.587V159.096H331.346V143.587H334.814ZM331.116 139.516C331.116 138.991 331.288 138.556 331.632 138.212C331.986 137.859 332.473 137.682 333.094 137.682C333.706 137.682 334.188 137.859 334.542 138.212C334.896 138.556 335.072 138.991 335.072 139.516C335.072 140.032 334.896 140.462 334.542 140.806C334.188 141.15 333.706 141.322 333.094 141.322C332.473 141.322 331.986 141.15 331.632 140.806C331.288 140.462 331.116 140.032 331.116 139.516ZM348.179 154.896C348.179 154.552 348.093 154.242 347.921 153.964C347.749 153.678 347.42 153.42 346.932 153.19C346.454 152.961 345.747 152.751 344.811 152.56C343.989 152.378 343.234 152.163 342.546 151.915C341.868 151.657 341.285 151.346 340.798 150.983C340.31 150.62 339.933 150.19 339.665 149.693C339.398 149.196 339.264 148.623 339.264 147.973C339.264 147.342 339.402 146.745 339.68 146.181C339.957 145.618 340.353 145.121 340.869 144.691C341.385 144.261 342.011 143.922 342.747 143.673C343.492 143.425 344.324 143.3 345.241 143.3C346.54 143.3 347.654 143.52 348.581 143.96C349.517 144.39 350.234 144.977 350.731 145.723C351.227 146.459 351.476 147.29 351.476 148.217H348.022C348.022 147.806 347.916 147.424 347.706 147.07C347.506 146.707 347.2 146.416 346.789 146.196C346.378 145.966 345.862 145.852 345.241 145.852C344.648 145.852 344.156 145.947 343.765 146.138C343.382 146.32 343.096 146.559 342.905 146.855C342.723 147.151 342.632 147.476 342.632 147.83C342.632 148.088 342.68 148.322 342.776 148.532C342.881 148.733 343.053 148.919 343.292 149.091C343.53 149.254 343.855 149.406 344.266 149.55C344.687 149.693 345.212 149.832 345.843 149.965C347.028 150.214 348.045 150.534 348.896 150.926C349.756 151.308 350.415 151.805 350.874 152.416C351.333 153.018 351.562 153.783 351.562 154.71C351.562 155.398 351.414 156.028 351.118 156.602C350.831 157.166 350.41 157.658 349.856 158.078C349.302 158.489 348.638 158.809 347.864 159.038C347.099 159.268 346.239 159.382 345.284 159.382C343.879 159.382 342.69 159.134 341.715 158.637C340.74 158.131 340 157.486 339.493 156.702C338.996 155.909 338.748 155.087 338.748 154.237H342.088C342.126 154.877 342.303 155.388 342.618 155.77C342.943 156.143 343.344 156.415 343.822 156.587C344.309 156.75 344.811 156.831 345.327 156.831C345.948 156.831 346.469 156.75 346.889 156.587C347.31 156.415 347.63 156.186 347.85 155.899C348.069 155.603 348.179 155.269 348.179 154.896ZM362.576 143.587V146.11H353.833V143.587H362.576ZM356.356 139.789H359.81V154.81C359.81 155.288 359.877 155.656 360.011 155.914C360.154 156.162 360.35 156.329 360.598 156.415C360.847 156.501 361.138 156.544 361.473 156.544C361.711 156.544 361.941 156.53 362.161 156.501C362.38 156.473 362.557 156.444 362.691 156.415L362.705 159.053C362.419 159.139 362.084 159.215 361.702 159.282C361.329 159.349 360.899 159.382 360.412 159.382C359.619 159.382 358.916 159.244 358.305 158.967C357.693 158.68 357.216 158.217 356.872 157.576C356.528 156.936 356.356 156.086 356.356 155.025V139.789ZM374.866 155.985V148.589C374.866 148.035 374.766 147.557 374.565 147.156C374.364 146.755 374.059 146.444 373.648 146.224C373.246 146.005 372.74 145.895 372.128 145.895C371.565 145.895 371.077 145.99 370.666 146.181C370.256 146.373 369.935 146.631 369.706 146.955C369.477 147.28 369.362 147.648 369.362 148.059H365.922C365.922 147.448 366.07 146.855 366.367 146.282C366.663 145.708 367.093 145.197 367.656 144.748C368.22 144.299 368.894 143.945 369.677 143.687C370.461 143.429 371.34 143.3 372.315 143.3C373.481 143.3 374.513 143.496 375.411 143.888C376.319 144.28 377.03 144.872 377.546 145.665C378.072 146.449 378.335 147.433 378.335 148.618V155.512C378.335 156.22 378.383 156.855 378.478 157.419C378.583 157.973 378.731 158.456 378.922 158.866V159.096H375.382C375.22 158.723 375.091 158.25 374.995 157.677C374.909 157.094 374.866 156.53 374.866 155.985ZM375.368 149.664L375.396 151.8H372.917C372.277 151.8 371.713 151.862 371.225 151.986C370.738 152.101 370.332 152.273 370.007 152.502C369.682 152.732 369.439 153.009 369.276 153.334C369.114 153.659 369.032 154.027 369.032 154.437C369.032 154.848 369.128 155.226 369.319 155.57C369.51 155.904 369.787 156.167 370.15 156.358C370.523 156.549 370.972 156.645 371.498 156.645C372.205 156.645 372.821 156.501 373.347 156.215C373.882 155.919 374.302 155.56 374.608 155.14C374.914 154.71 375.076 154.304 375.095 153.921L376.213 155.455C376.099 155.847 375.903 156.267 375.626 156.716C375.349 157.166 374.986 157.596 374.536 158.006C374.097 158.408 373.567 158.737 372.945 158.995C372.334 159.253 371.627 159.382 370.824 159.382C369.811 159.382 368.908 159.182 368.115 158.78C367.322 158.37 366.701 157.82 366.252 157.132C365.803 156.435 365.578 155.646 365.578 154.767C365.578 153.945 365.731 153.219 366.037 152.588C366.352 151.948 366.811 151.413 367.413 150.983C368.024 150.553 368.77 150.228 369.649 150.008C370.528 149.779 371.531 149.664 372.659 149.664H375.368ZM391.528 154.896C391.528 154.552 391.442 154.242 391.27 153.964C391.098 153.678 390.768 153.42 390.281 153.19C389.803 152.961 389.096 152.751 388.159 152.56C387.338 152.378 386.583 152.163 385.895 151.915C385.216 151.657 384.633 151.346 384.146 150.983C383.659 150.62 383.281 150.19 383.014 149.693C382.746 149.196 382.612 148.623 382.612 147.973C382.612 147.342 382.751 146.745 383.028 146.181C383.305 145.618 383.702 145.121 384.218 144.691C384.734 144.261 385.36 143.922 386.095 143.673C386.841 143.425 387.672 143.3 388.589 143.3C389.889 143.3 391.002 143.52 391.929 143.96C392.866 144.39 393.582 144.977 394.079 145.723C394.576 146.459 394.824 147.29 394.824 148.217H391.37C391.37 147.806 391.265 147.424 391.055 147.07C390.854 146.707 390.548 146.416 390.137 146.196C389.727 145.966 389.211 145.852 388.589 145.852C387.997 145.852 387.505 145.947 387.113 146.138C386.731 146.32 386.444 146.559 386.253 146.855C386.072 147.151 385.981 147.476 385.981 147.83C385.981 148.088 386.029 148.322 386.124 148.532C386.229 148.733 386.401 148.919 386.64 149.091C386.879 149.254 387.204 149.406 387.615 149.55C388.035 149.693 388.561 149.832 389.191 149.965C390.376 150.214 391.394 150.534 392.244 150.926C393.104 151.308 393.764 151.805 394.222 152.416C394.681 153.018 394.91 153.783 394.91 154.71C394.91 155.398 394.762 156.028 394.466 156.602C394.179 157.166 393.759 157.658 393.205 158.078C392.651 158.489 391.986 158.809 391.212 159.038C390.448 159.268 389.588 159.382 388.632 159.382C387.228 159.382 386.038 159.134 385.063 158.637C384.089 158.131 383.348 157.486 382.842 156.702C382.345 155.909 382.096 155.087 382.096 154.237H385.436C385.474 154.877 385.651 155.388 385.966 155.77C386.291 156.143 386.693 156.415 387.17 156.587C387.658 156.75 388.159 156.831 388.675 156.831C389.297 156.831 389.817 156.75 390.238 156.587C390.658 156.415 390.978 156.186 391.198 155.899C391.418 155.603 391.528 155.269 391.528 154.896ZM413.843 159.382C412.696 159.382 411.66 159.196 410.733 158.823C409.815 158.441 409.032 157.911 408.382 157.232C407.742 156.554 407.25 155.756 406.906 154.839C406.562 153.921 406.39 152.932 406.39 151.872V151.298C406.39 150.085 406.566 148.986 406.92 148.002C407.274 147.018 407.766 146.177 408.396 145.479C409.027 144.772 409.772 144.232 410.632 143.859C411.492 143.487 412.424 143.3 413.427 143.3C414.536 143.3 415.506 143.487 416.337 143.859C417.168 144.232 417.856 144.758 418.401 145.436C418.955 146.105 419.366 146.903 419.634 147.83C419.911 148.757 420.049 149.779 420.049 150.897V152.373H408.067V149.894H416.638V149.621C416.619 149 416.495 148.417 416.265 147.873C416.046 147.328 415.706 146.889 415.248 146.554C414.789 146.22 414.177 146.052 413.413 146.052C412.84 146.052 412.328 146.177 411.879 146.425C411.44 146.664 411.072 147.013 410.776 147.471C410.479 147.93 410.25 148.484 410.088 149.134C409.935 149.774 409.858 150.496 409.858 151.298V151.872C409.858 152.55 409.949 153.181 410.131 153.764C410.322 154.337 410.599 154.839 410.962 155.269C411.325 155.699 411.765 156.038 412.281 156.286C412.797 156.525 413.384 156.645 414.044 156.645C414.875 156.645 415.616 156.478 416.265 156.143C416.915 155.809 417.479 155.336 417.957 154.724L419.777 156.487C419.443 156.974 419.008 157.443 418.473 157.892C417.938 158.331 417.283 158.69 416.509 158.967C415.745 159.244 414.856 159.382 413.843 159.382ZM427.05 146.898V159.096H423.596V143.587H426.85L427.05 146.898ZM426.434 150.768L425.316 150.754C425.326 149.655 425.478 148.647 425.775 147.729C426.08 146.812 426.501 146.024 427.036 145.364C427.581 144.705 428.23 144.199 428.985 143.845C429.74 143.482 430.581 143.3 431.508 143.3C432.253 143.3 432.927 143.406 433.529 143.616C434.14 143.816 434.661 144.146 435.091 144.605C435.531 145.063 435.865 145.661 436.095 146.396C436.324 147.123 436.439 148.016 436.439 149.077V159.096H432.97V149.062C432.97 148.317 432.86 147.729 432.64 147.299C432.43 146.86 432.119 146.549 431.709 146.368C431.307 146.177 430.806 146.081 430.204 146.081C429.611 146.081 429.081 146.205 428.613 146.454C428.144 146.702 427.748 147.041 427.423 147.471C427.108 147.901 426.864 148.398 426.692 148.962C426.52 149.526 426.434 150.128 426.434 150.768ZM455.371 156.63C455.935 156.63 456.441 156.521 456.89 156.301C457.349 156.071 457.717 155.756 457.994 155.355C458.281 154.953 458.438 154.49 458.467 153.964H461.721C461.702 154.968 461.405 155.88 460.832 156.702C460.259 157.524 459.499 158.178 458.553 158.666C457.607 159.144 456.561 159.382 455.414 159.382C454.229 159.382 453.197 159.182 452.318 158.78C451.439 158.37 450.708 157.806 450.125 157.089C449.542 156.372 449.103 155.546 448.807 154.609C448.52 153.673 448.377 152.67 448.377 151.599V151.098C448.377 150.028 448.52 149.024 448.807 148.088C449.103 147.142 449.542 146.31 450.125 145.594C450.708 144.877 451.439 144.318 452.318 143.917C453.197 143.506 454.225 143.3 455.4 143.3C456.642 143.3 457.731 143.549 458.668 144.046C459.604 144.533 460.34 145.216 460.875 146.095C461.42 146.965 461.702 147.978 461.721 149.134H458.467C458.438 148.561 458.295 148.045 458.037 147.586C457.789 147.118 457.435 146.745 456.976 146.468C456.527 146.191 455.987 146.052 455.357 146.052C454.659 146.052 454.081 146.196 453.623 146.482C453.164 146.76 452.806 147.142 452.548 147.629C452.29 148.107 452.103 148.647 451.989 149.249C451.883 149.841 451.831 150.458 451.831 151.098V151.599C451.831 152.24 451.883 152.861 451.989 153.463C452.094 154.065 452.275 154.605 452.533 155.082C452.801 155.551 453.164 155.928 453.623 156.215C454.081 156.492 454.664 156.63 455.371 156.63ZM473.996 155.985V148.589C473.996 148.035 473.896 147.557 473.695 147.156C473.495 146.755 473.189 146.444 472.778 146.224C472.377 146.005 471.87 145.895 471.259 145.895C470.695 145.895 470.208 145.99 469.797 146.181C469.386 146.373 469.066 146.631 468.836 146.955C468.607 147.28 468.492 147.648 468.492 148.059H465.052C465.052 147.448 465.201 146.855 465.497 146.282C465.793 145.708 466.223 145.197 466.787 144.748C467.351 144.299 468.024 143.945 468.808 143.687C469.591 143.429 470.47 143.3 471.445 143.3C472.611 143.3 473.643 143.496 474.541 143.888C475.449 144.28 476.161 144.872 476.677 145.665C477.202 146.449 477.465 147.433 477.465 148.618V155.512C477.465 156.22 477.513 156.855 477.608 157.419C477.714 157.973 477.862 158.456 478.053 158.866V159.096H474.512C474.35 158.723 474.221 158.25 474.125 157.677C474.039 157.094 473.996 156.53 473.996 155.985ZM474.498 149.664L474.527 151.8H472.047C471.407 151.8 470.843 151.862 470.356 151.986C469.868 152.101 469.462 152.273 469.137 152.502C468.813 152.732 468.569 153.009 468.406 153.334C468.244 153.659 468.163 154.027 468.163 154.437C468.163 154.848 468.258 155.226 468.449 155.57C468.641 155.904 468.918 156.167 469.281 156.358C469.653 156.549 470.103 156.645 470.628 156.645C471.335 156.645 471.952 156.501 472.477 156.215C473.012 155.919 473.433 155.56 473.738 155.14C474.044 154.71 474.207 154.304 474.226 153.921L475.344 155.455C475.229 155.847 475.033 156.267 474.756 156.716C474.479 157.166 474.116 157.596 473.667 158.006C473.227 158.408 472.697 158.737 472.076 158.995C471.464 159.253 470.757 159.382 469.954 159.382C468.942 159.382 468.039 159.182 467.245 158.78C466.452 158.37 465.831 157.82 465.382 157.132C464.933 156.435 464.708 155.646 464.708 154.767C464.708 153.945 464.861 153.219 465.167 152.588C465.482 151.948 465.941 151.413 466.543 150.983C467.155 150.553 467.9 150.228 468.779 150.008C469.658 149.779 470.662 149.664 471.789 149.664H474.498ZM485.426 146.568V165.058H481.972V143.587H485.154L485.426 146.568ZM495.531 151.198V151.499C495.531 152.627 495.398 153.673 495.13 154.638C494.872 155.594 494.485 156.43 493.969 157.146C493.463 157.854 492.837 158.403 492.091 158.795C491.346 159.187 490.486 159.382 489.511 159.382C488.546 159.382 487.701 159.206 486.974 158.852C486.258 158.489 485.651 157.978 485.154 157.318C484.657 156.659 484.256 155.885 483.95 154.996C483.654 154.098 483.444 153.114 483.319 152.044V150.883C483.444 149.746 483.654 148.714 483.95 147.787C484.256 146.86 484.657 146.062 485.154 145.393C485.651 144.724 486.258 144.208 486.974 143.845C487.691 143.482 488.527 143.3 489.483 143.3C490.457 143.3 491.322 143.492 492.077 143.874C492.832 144.246 493.467 144.782 493.983 145.479C494.499 146.167 494.886 146.998 495.144 147.973C495.402 148.938 495.531 150.013 495.531 151.198ZM492.077 151.499V151.198C492.077 150.481 492.01 149.817 491.876 149.206C491.743 148.585 491.532 148.04 491.246 147.572C490.959 147.104 490.591 146.74 490.142 146.482C489.702 146.215 489.172 146.081 488.551 146.081C487.939 146.081 487.414 146.186 486.974 146.396C486.535 146.597 486.167 146.879 485.871 147.242C485.574 147.605 485.345 148.03 485.183 148.518C485.02 148.996 484.906 149.516 484.839 150.08V152.861C484.953 153.549 485.149 154.179 485.426 154.753C485.703 155.326 486.095 155.785 486.602 156.129C487.118 156.463 487.777 156.63 488.58 156.63C489.201 156.63 489.731 156.497 490.171 156.229C490.61 155.962 490.969 155.594 491.246 155.125C491.532 154.648 491.743 154.098 491.876 153.477C492.01 152.856 492.077 152.197 492.077 151.499ZM508.094 155.985V148.589C508.094 148.035 507.993 147.557 507.793 147.156C507.592 146.755 507.286 146.444 506.875 146.224C506.474 146.005 505.968 145.895 505.356 145.895C504.792 145.895 504.305 145.99 503.894 146.181C503.483 146.373 503.163 146.631 502.934 146.955C502.704 147.28 502.59 147.648 502.59 148.059H499.15C499.15 147.448 499.298 146.855 499.594 146.282C499.89 145.708 500.32 145.197 500.884 144.748C501.448 144.299 502.121 143.945 502.905 143.687C503.689 143.429 504.568 143.3 505.542 143.3C506.708 143.3 507.74 143.496 508.638 143.888C509.546 144.28 510.258 144.872 510.774 145.665C511.3 146.449 511.562 147.433 511.562 148.618V155.512C511.562 156.22 511.61 156.855 511.706 157.419C511.811 157.973 511.959 158.456 512.15 158.866V159.096H508.61C508.447 158.723 508.318 158.25 508.223 157.677C508.137 157.094 508.094 156.53 508.094 155.985ZM508.595 149.664L508.624 151.8H506.144C505.504 151.8 504.94 151.862 504.453 151.986C503.966 152.101 503.56 152.273 503.235 152.502C502.91 152.732 502.666 153.009 502.504 153.334C502.341 153.659 502.26 154.027 502.26 154.437C502.26 154.848 502.356 155.226 502.547 155.57C502.738 155.904 503.015 156.167 503.378 156.358C503.751 156.549 504.2 156.645 504.725 156.645C505.432 156.645 506.049 156.501 506.574 156.215C507.109 155.919 507.53 155.56 507.836 155.14C508.141 154.71 508.304 154.304 508.323 153.921L509.441 155.455C509.326 155.847 509.13 156.267 508.853 156.716C508.576 157.166 508.213 157.596 507.764 158.006C507.324 158.408 506.794 158.737 506.173 158.995C505.561 159.253 504.854 159.382 504.052 159.382C503.039 159.382 502.136 159.182 501.343 158.78C500.55 158.37 499.928 157.82 499.479 157.132C499.03 156.435 498.806 155.646 498.806 154.767C498.806 153.945 498.959 153.219 499.264 152.588C499.58 151.948 500.038 151.413 500.64 150.983C501.252 150.553 501.997 150.228 502.876 150.008C503.755 149.779 504.759 149.664 505.886 149.664H508.595ZM522.39 156.63C522.954 156.63 523.46 156.521 523.91 156.301C524.368 156.071 524.736 155.756 525.013 155.355C525.3 154.953 525.458 154.49 525.486 153.964H528.74C528.721 154.968 528.425 155.88 527.851 156.702C527.278 157.524 526.518 158.178 525.572 158.666C524.626 159.144 523.58 159.382 522.433 159.382C521.248 159.382 520.216 159.182 519.337 158.78C518.458 158.37 517.727 157.806 517.144 157.089C516.561 156.372 516.122 155.546 515.826 154.609C515.539 153.673 515.396 152.67 515.396 151.599V151.098C515.396 150.028 515.539 149.024 515.826 148.088C516.122 147.142 516.561 146.31 517.144 145.594C517.727 144.877 518.458 144.318 519.337 143.917C520.216 143.506 521.244 143.3 522.419 143.3C523.661 143.3 524.75 143.549 525.687 144.046C526.623 144.533 527.359 145.216 527.894 146.095C528.439 146.965 528.721 147.978 528.74 149.134H525.486C525.458 148.561 525.314 148.045 525.056 147.586C524.808 147.118 524.454 146.745 523.996 146.468C523.546 146.191 523.007 146.052 522.376 146.052C521.678 146.052 521.1 146.196 520.642 146.482C520.183 146.76 519.825 147.142 519.567 147.629C519.309 148.107 519.122 148.647 519.008 149.249C518.902 149.841 518.85 150.458 518.85 151.098V151.599C518.85 152.24 518.902 152.861 519.008 153.463C519.113 154.065 519.294 154.605 519.552 155.082C519.82 155.551 520.183 155.928 520.642 156.215C521.1 156.492 521.683 156.63 522.39 156.63ZM535.97 143.587V159.096H532.502V143.587H535.97ZM532.272 139.516C532.272 138.991 532.444 138.556 532.788 138.212C533.142 137.859 533.629 137.682 534.25 137.682C534.862 137.682 535.344 137.859 535.698 138.212C536.051 138.556 536.228 138.991 536.228 139.516C536.228 140.032 536.051 140.462 535.698 140.806C535.344 141.15 534.862 141.322 534.25 141.322C533.629 141.322 533.142 141.15 532.788 140.806C532.444 140.462 532.272 140.032 532.272 139.516ZM547.744 143.587V146.11H539.001V143.587H547.744ZM541.523 139.789H544.978V154.81C544.978 155.288 545.045 155.656 545.178 155.914C545.322 156.162 545.518 156.329 545.766 156.415C546.015 156.501 546.306 156.544 546.64 156.544C546.879 156.544 547.109 156.53 547.328 156.501C547.548 156.473 547.725 156.444 547.859 156.415L547.873 159.053C547.586 159.139 547.252 159.215 546.87 159.282C546.497 159.349 546.067 159.382 545.58 159.382C544.787 159.382 544.084 159.244 543.473 158.967C542.861 158.68 542.383 158.217 542.039 157.576C541.695 156.936 541.523 156.086 541.523 155.025V139.789ZM560.034 155.985V148.589C560.034 148.035 559.934 147.557 559.733 147.156C559.532 146.755 559.227 146.444 558.816 146.224C558.414 146.005 557.908 145.895 557.296 145.895C556.733 145.895 556.245 145.99 555.834 146.181C555.424 146.373 555.103 146.631 554.874 146.955C554.645 147.28 554.53 147.648 554.53 148.059H551.09C551.09 147.448 551.238 146.855 551.534 146.282C551.831 145.708 552.261 145.197 552.824 144.748C553.388 144.299 554.062 143.945 554.845 143.687C555.629 143.429 556.508 143.3 557.483 143.3C558.649 143.3 559.681 143.496 560.579 143.888C561.487 144.28 562.198 144.872 562.714 145.665C563.24 146.449 563.503 147.433 563.503 148.618V155.512C563.503 156.22 563.551 156.855 563.646 157.419C563.751 157.973 563.899 158.456 564.09 158.866V159.096H560.55C560.388 158.723 560.259 158.25 560.163 157.677C560.077 157.094 560.034 156.53 560.034 155.985ZM560.536 149.664L560.564 151.8H558.085C557.445 151.8 556.881 151.862 556.393 151.986C555.906 152.101 555.5 152.273 555.175 152.502C554.85 152.732 554.607 153.009 554.444 153.334C554.282 153.659 554.2 154.027 554.2 154.437C554.2 154.848 554.296 155.226 554.487 155.57C554.678 155.904 554.955 156.167 555.318 156.358C555.691 156.549 556.14 156.645 556.666 156.645C557.373 156.645 557.989 156.501 558.515 156.215C559.05 155.919 559.47 155.56 559.776 155.14C560.082 154.71 560.244 154.304 560.263 153.921L561.381 155.455C561.267 155.847 561.071 156.267 560.794 156.716C560.517 157.166 560.154 157.596 559.704 158.006C559.265 158.408 558.735 158.737 558.113 158.995C557.502 159.253 556.795 159.382 555.992 159.382C554.979 159.382 554.076 159.182 553.283 158.78C552.49 158.37 551.869 157.82 551.42 157.132C550.971 156.435 550.746 155.646 550.746 154.767C550.746 153.945 550.899 153.219 551.205 152.588C551.52 151.948 551.979 151.413 552.581 150.983C553.192 150.553 553.938 150.228 554.817 150.008C555.696 149.779 556.699 149.664 557.827 149.664H560.536ZM574.331 156.63C574.894 156.63 575.401 156.521 575.85 156.301C576.309 156.071 576.677 155.756 576.954 155.355C577.24 154.953 577.398 154.49 577.427 153.964H580.68C580.661 154.968 580.365 155.88 579.792 156.702C579.218 157.524 578.459 158.178 577.513 158.666C576.567 159.144 575.52 159.382 574.374 159.382C573.189 159.382 572.157 159.182 571.278 158.78C570.399 158.37 569.668 157.806 569.085 157.089C568.502 156.372 568.062 155.546 567.766 154.609C567.479 153.673 567.336 152.67 567.336 151.599V151.098C567.336 150.028 567.479 149.024 567.766 148.088C568.062 147.142 568.502 146.31 569.085 145.594C569.668 144.877 570.399 144.318 571.278 143.917C572.157 143.506 573.184 143.3 574.359 143.3C575.602 143.3 576.691 143.549 577.627 144.046C578.564 144.533 579.3 145.216 579.835 146.095C580.379 146.965 580.661 147.978 580.68 149.134H577.427C577.398 148.561 577.255 148.045 576.997 147.586C576.748 147.118 576.395 146.745 575.936 146.468C575.487 146.191 574.947 146.052 574.316 146.052C573.619 146.052 573.041 146.196 572.582 146.482C572.123 146.76 571.765 147.142 571.507 147.629C571.249 148.107 571.063 148.647 570.948 149.249C570.843 149.841 570.79 150.458 570.79 151.098V151.599C570.79 152.24 570.843 152.861 570.948 153.463C571.053 154.065 571.235 154.605 571.493 155.082C571.76 155.551 572.123 155.928 572.582 156.215C573.041 156.492 573.624 156.63 574.331 156.63ZM587.911 143.587V159.096H584.442V143.587H587.911ZM584.213 139.516C584.213 138.991 584.385 138.556 584.729 138.212C585.082 137.859 585.57 137.682 586.191 137.682C586.802 137.682 587.285 137.859 587.638 138.212C587.992 138.556 588.169 138.991 588.169 139.516C588.169 140.032 587.992 140.462 587.638 140.806C587.285 141.15 586.802 141.322 586.191 141.322C585.57 141.322 585.082 141.15 584.729 140.806C584.385 140.462 584.213 140.032 584.213 139.516ZM591.916 151.513V151.184C591.916 150.066 592.078 149.029 592.403 148.073C592.728 147.108 593.196 146.272 593.808 145.565C594.429 144.848 595.184 144.294 596.073 143.902C596.971 143.501 597.984 143.3 599.111 143.3C600.248 143.3 601.261 143.501 602.15 143.902C603.048 144.294 603.808 144.848 604.429 145.565C605.05 146.272 605.523 147.108 605.848 148.073C606.173 149.029 606.335 150.066 606.335 151.184V151.513C606.335 152.631 606.173 153.668 605.848 154.624C605.523 155.579 605.05 156.415 604.429 157.132C603.808 157.839 603.053 158.393 602.164 158.795C601.276 159.187 600.267 159.382 599.14 159.382C598.003 159.382 596.985 159.187 596.087 158.795C595.198 158.393 594.443 157.839 593.822 157.132C593.201 156.415 592.728 155.579 592.403 154.624C592.078 153.668 591.916 152.631 591.916 151.513ZM595.37 151.184V151.513C595.37 152.211 595.442 152.87 595.585 153.491C595.729 154.113 595.953 154.657 596.259 155.125C596.565 155.594 596.956 155.962 597.434 156.229C597.912 156.497 598.481 156.63 599.14 156.63C599.78 156.63 600.334 156.497 600.803 156.229C601.28 155.962 601.672 155.594 601.978 155.125C602.284 154.657 602.508 154.113 602.652 153.491C602.804 152.87 602.881 152.211 602.881 151.513V151.184C602.881 150.496 602.804 149.846 602.652 149.234C602.508 148.613 602.279 148.064 601.964 147.586C601.658 147.108 601.266 146.736 600.788 146.468C600.32 146.191 599.761 146.052 599.111 146.052C598.461 146.052 597.898 146.191 597.42 146.468C596.952 146.736 596.565 147.108 596.259 147.586C595.953 148.064 595.729 148.613 595.585 149.234C595.442 149.846 595.37 150.496 595.37 151.184ZM597.305 141.394L600.1 137.08H603.999L600.1 141.394H597.305ZM613.537 146.898V159.096H610.083V143.587H613.336L613.537 146.898ZM612.921 150.768L611.803 150.754C611.812 149.655 611.965 148.647 612.261 147.729C612.567 146.812 612.987 146.024 613.523 145.364C614.067 144.705 614.717 144.199 615.472 143.845C616.227 143.482 617.068 143.3 617.995 143.3C618.74 143.3 619.414 143.406 620.016 143.616C620.627 143.816 621.148 144.146 621.578 144.605C622.017 145.063 622.352 145.661 622.581 146.396C622.811 147.123 622.925 148.016 622.925 149.077V159.096H619.457V149.062C619.457 148.317 619.347 147.729 619.127 147.299C618.917 146.86 618.606 146.549 618.195 146.368C617.794 146.177 617.292 146.081 616.69 146.081C616.098 146.081 615.567 146.205 615.099 146.454C614.631 146.702 614.234 147.041 613.91 147.471C613.594 147.901 613.351 148.398 613.179 148.962C613.007 149.526 612.921 150.128 612.921 150.768Z" fill="white"/>
<path d="M250.962 92.7481L242.743 107.425H234.524L226.304 92.7481V115.645H215.737V74.5482H226.891L238.633 96.2706L250.375 74.5482H261.53V115.645H250.962V92.7481ZM275.937 115.645H264.488L280.046 74.5482H291.788L307.346 115.645H295.898L293.256 108.306H278.578L275.937 115.645ZM281.22 100.674H290.614L285.917 86.8771L281.22 100.674ZM337.9 125.038C335.16 125.43 332.538 125.625 330.033 125.625C327.528 125.625 325.473 124.823 323.868 123.218C322.264 121.613 321.461 119.48 321.461 116.819V116.232H319.7C315.59 116.232 312.596 115.312 310.718 113.472C308.878 111.594 307.958 108.6 307.958 104.49V85.703C307.958 81.5933 308.878 78.6187 310.718 76.7792C312.596 74.9005 315.59 73.9611 319.7 73.9611H334.377C338.487 73.9611 341.462 74.9005 343.301 76.7792C345.18 78.6187 346.119 81.5933 346.119 85.703V104.49C346.119 108.6 345.18 111.594 343.301 113.472C341.462 115.312 338.487 116.232 334.377 116.232H331.442V116.819C331.442 117.406 331.638 117.895 332.029 118.287C332.42 118.678 332.91 118.874 333.497 118.874H337.9V125.038ZM335.552 85.703C335.552 83.3546 334.377 82.1804 332.029 82.1804H322.049C319.7 82.1804 318.526 83.3546 318.526 85.703V104.49C318.526 106.838 319.7 108.012 322.049 108.012H332.029C334.377 108.012 335.552 106.838 335.552 104.49V85.703ZM378.437 74.5482H389.005V104.49C389.005 108.6 388.065 111.594 386.186 113.472C384.347 115.312 381.372 116.232 377.263 116.232H363.76C359.65 116.232 356.656 115.312 354.777 113.472C352.937 111.594 352.018 108.6 352.018 104.49V74.5482H362.585V104.49C362.585 106.838 363.76 108.012 366.108 108.012H374.914C377.263 108.012 378.437 106.838 378.437 104.49V74.5482ZM415.424 115.645H394.288V107.425H399.572V82.7675H394.288V74.5482H415.424V82.7675H410.14V107.425H415.424V115.645ZM456.516 115.645H445.361L431.271 90.9868V115.645H420.703V74.5482H431.858L445.948 99.2061V74.5482H456.516V115.645ZM470.927 115.645H459.479L475.036 74.5482H486.778L502.336 115.645H490.888L488.246 108.306H473.569L470.927 115.645ZM476.211 100.674H485.604L480.907 86.8771L476.211 100.674ZM505.269 74.5482H529.927C534.037 74.5482 537.012 75.4875 538.851 77.3662C540.73 79.2058 541.669 82.1804 541.669 86.29V91.5739C541.669 94.8225 541.121 97.3469 540.025 99.1474C538.968 100.948 537.266 102.142 534.918 102.729L542.256 115.645H530.808L524.056 103.316H515.837V115.645H505.269V74.5482ZM531.101 86.29C531.101 83.9417 529.927 82.7675 527.579 82.7675H515.837V95.0964H527.579C529.927 95.0964 531.101 93.9222 531.101 91.5739V86.29ZM566.898 115.645H545.763V107.425H551.047V82.7675H545.763V74.5482H566.898V82.7675H561.614V107.425H566.898V115.645ZM579.516 115.645H568.068L583.626 74.5482H595.367L610.925 115.645H599.477L596.835 108.306H582.158L579.516 115.645ZM584.8 100.674H594.193L589.496 86.8771L584.8 100.674Z" fill="white"/>
<path d="M248.32 54H215.737V12.9035H248.32V21.1228H226.304V29.0486H243.624V37.2679H226.304V45.7807H248.32V54ZM288.816 54H277.661L263.571 29.3421V54H253.003V12.9035H264.158L278.248 37.5614V12.9035H288.816V54ZM315.85 54H305.282V21.1228H292.953V12.9035H328.179V21.1228H315.85V54ZM332.295 12.9035H356.953C361.063 12.9035 364.037 13.8429 365.877 15.7216C367.755 17.5611 368.695 20.5357 368.695 24.6454V29.9292C368.695 33.1778 368.147 35.7023 367.051 37.5027C365.994 39.3031 364.292 40.4969 361.943 41.084L369.282 54H357.834L351.082 41.6711H342.863V54H332.295V12.9035ZM358.127 24.6454C358.127 22.297 356.953 21.1228 354.605 21.1228H342.863V33.4518H354.605C356.953 33.4518 358.127 32.2776 358.127 29.9292V24.6454ZM407.133 54H374.55V12.9035H407.133V21.1228H385.117V29.0486H402.437V37.2679H385.117V45.7807H407.133V54ZM447.629 54H436.474L422.384 29.3421V54H411.816V12.9035H422.971L437.061 37.5614V12.9035H447.629V54ZM462.04 54H450.592L466.15 12.9035H477.892L493.45 54H482.001L479.359 46.6613H464.682L462.04 54ZM467.324 39.0291H476.717L472.021 25.2325L467.324 39.0291ZM531.608 31.1034L523.389 45.7807H515.17L506.95 31.1034V54H496.383V12.9035H507.538L519.279 34.626L531.021 12.9035H542.176V54H531.608V31.1034ZM568.618 54H547.483V45.7807H552.767V21.1228H547.483V12.9035H568.618V21.1228H563.334V45.7807H568.618V54ZM606.481 54H573.897V12.9035H606.481V21.1228H584.465V29.0486H601.784V37.2679H584.465V45.7807H606.481V54ZM646.976 54H635.822L621.732 29.3421V54H611.164V12.9035H622.319L636.409 37.5614V12.9035H646.976V54ZM674.01 54H663.443V21.1228H651.114V12.9035H686.339V21.1228H674.01V54ZM716.875 24.0583C716.875 21.7099 715.701 20.5357 713.352 20.5357H703.372C701.023 20.5357 699.849 21.7099 699.849 24.0583V42.8452C699.849 45.1936 701.023 46.3678 703.372 46.3678H713.352C715.701 46.3678 716.875 45.1936 716.875 42.8452V24.0583ZM727.442 42.8452C727.442 46.9549 726.503 49.9491 724.624 51.8278C722.785 53.6673 719.81 54.5871 715.701 54.5871H701.023C696.914 54.5871 693.92 53.6673 692.041 51.8278C690.201 49.9491 689.282 46.9549 689.282 42.8452V24.0583C689.282 19.9487 690.201 16.9741 692.041 15.1345C693.92 13.2558 696.914 12.3165 701.023 12.3165H715.701C719.81 12.3165 722.785 13.2558 724.624 15.1345C726.503 16.9741 727.442 19.9487 727.442 24.0583V42.8452Z" fill="white"/>
<path d="M112.446 17.1842H144.573L176.7 83.3385L144.573 149.167H112.446L144.573 83.3385L112.446 17.1842Z" fill="#FFCB00"/>
<path d="M58.7555 8.50113H95.2244L131.693 83.36L95.2244 157.85H58.7555L95.2244 83.36L58.7555 8.50113Z" fill="#FFCB00"/>
<path d="M0 0H40.5499L81.0999 83.2359L40.5499 166.062H0L40.5499 83.2359L0 0Z" fill="#FFCB00"/>
</svg>
